<svg version="1.1" id="Layer_1" xmlns="http://www.w3.org/2000/svg" xmlns:xlink="http://www.w3.org/1999/xlink" x="0px" y="0px" viewBox="0 0 20.781 30" style="enable-background:new 0 0 20.781 30;" xml:space="preserve">
<g id="two-finger-right-7">
<path d="M4.806,25.806L5,26v4h1v-4.414l-0.527-0.527l-4.098-3.278C1.137,21.59,1,21.305,1,21v-4c0-0.551,0.449-1,1-1s1,0.449,1,1v1
		v1v1.519l1,0.8v-1.281V19v-1v-1V7c0-0.551,0.449-1,1-1s1,0.449,1,1v11h1V7V5c0-0.551,0.449-1,1-1s1,0.449,1,1v9v4h1v-4
		c0-0.551,0.449-1,1-1s1,0.449,1,1v1v3h1v-3c0-0.551,0.449-1,1-1s1,0.449,1,1v3v1v4.838l-1,3V30h1v-3l1-3v-5v-1v-3c0-1.1-0.9-2-2-2
		c-0.414,0-0.8,0.128-1.12,0.346C12.607,12.566,11.87,12,11,12c-0.365,0-0.704,0.106-1,0.279V7.445C11.191,6.752,12,5.477,12,4
		c0-2.209-1.791-4-4-4C6.504,0,5.215,0.831,4.529,2.047C2.545,2.283,1,3.952,1,6c0,1.477,0.809,2.752,2,3.445v5.832
		C2.705,15.106,2.366,15,2,15c-1.104,0-2,0.896-2,2v4c0,0.607,0.276,1.182,0.75,1.562L4.806,25.806z M2,6c0-1.654,1.346-3,3-3
		c0.061,0,0.118,0.014,0.179,0.018C5.588,1.847,6.691,1,8,1c1.654,0,3,1.346,3,3c0,0.883-0.391,1.67-1,2.22V5c0-1.1-0.9-2-2-2
		S6,3.9,6,5v0.279C5.704,5.106,5.365,5,5,5C3.9,5,3,5.9,3,7v1.22C2.391,7.67,2,6.883,2,6z" id="id_101" style="fill: rgb(122, 122, 122);"></path>
<polygon points="16.68,1.384 18.619,3 14,3 14,4 18.619,4 16.68,5.616 17.32,6.384 20.781,3.5 17.32,0.616 	" id="id_102" style="fill: rgb(122, 122, 122);"></polygon>
</g>
</svg>